<svg xmlns="http://www.w3.org/2000/svg" viewBox="0 0 32 32" fill="none">
  <rect width="32" height="32" rx="6" fill="#0D1117"/>
  <rect x="1" y="1" width="30" height="30" rx="5" stroke="#58A6FF" stroke-width="1" fill="none" opacity="0.3"/>
  <path d="M7.5 22L11.5 10H14L18 22H15.5L14.7 19.5H10.8L10 22H7.5ZM11.4 17.5H14.1L12.75 13L11.4 17.5Z" fill="#58A6FF"/>
  <path d="M18.5 18.5C18.5 17.3 19.1 16.4 20.3 15.8C19.4 15.3 18.9 14.5 18.9 13.5C18.9 11.5 20.3 10 23 10C24.5 10 25.7 10.5 26 10.7L25.3 12.5C25 12.3 24.2 12 23.2 12C22 12 21.3 12.5 21.3 13.4C21.3 14.2 22 14.7 23.3 14.7H24V16.5H23.1C21.7 16.5 20.9 17.1 20.9 18C20.9 18.9 21.6 19.5 23 19.5C24.2 19.5 25.1 19.1 25.5 18.9L26 20.8C25.5 21.1 24.3 21.5 22.8 21.5C20.1 21.5 18.5 20.2 18.5 18.5Z" fill="#58A6FF"/>
</svg>
